<svg width="48" height="48" viewBox="0 0 48 48" fill="none" xmlns="http://www.w3.org/2000/svg">
<g id="vuesax/bold/airplane-square">
<g id="airplane-square">
<path id="Vector" d="M32.38 4H15.62C8.34 4 4 8.34 4 15.62V32.36C4 39.66 8.34 44 15.62 44H32.36C39.64 44 43.98 39.66 43.98 32.38V15.62C44 8.34 39.66 4 32.38 4ZM37.02 26.38C37.02 27.58 36.1 28.18 35 27.7L28.3 24.82C27.52 24.5 26.9 24.9 26.9 25.74V29.44C26.9 29.76 27.08 30.22 27.32 30.46L30.6 33.76C30.94 34.1 31.1 34.78 30.94 35.24L30.3 37.16C30.02 38 29.06 38.4 28.28 38L24.94 35.16C24.42 34.74 23.58 34.74 23.08 35.16L19.72 38C18.92 38.4 17.98 38 17.7 37.14L17.06 35.22C16.9 34.76 17.06 34.08 17.4 33.74L20.74 30.46C20.96 30.24 21.16 29.78 21.16 29.44V25.74C21.16 24.9 20.52 24.48 19.76 24.82L13.06 27.7C11.94 28.18 11.04 27.58 11.04 26.38V24.52C11.04 23.56 11.78 22.44 12.66 22.06L20.54 18.66C20.86 18.52 21.14 18.1 21.14 17.74V13.6C21.14 12.24 22.12 10.62 23.34 10.02C23.78 9.8 24.28 9.8 24.72 10.02C25.92 10.64 26.92 12.24 26.92 13.6V17.74C26.92 18.1 27.18 18.52 27.52 18.66L35.4 22.06C36.3 22.44 37.02 23.56 37.02 24.52V26.38Z" fill="white"/>
</g>
</g>
</svg>
