<svg width="48" height="48" viewBox="0 0 48 48" fill="none" xmlns="http://www.w3.org/2000/svg">
<g id="vuesax/bold/buildings">
<g id="buildings">
<path id="Vector" d="M10 16C6.68 16 4 18.68 4 22V38C4 41.32 6.68 44 10 44H13C15.2 44 17 42.2 17 40V20C17 17.8 15.2 16 13 16H10ZM12 34C12 34.82 11.32 35.5 10.5 35.5C9.68 35.5 9 34.82 9 34V26C9 25.18 9.68 24.5 10.5 24.5C11.32 24.5 12 25.18 12 26V34Z" fill="white"/>
<path id="Vector_2" d="M38 4H26C22.68 4 20 6.68 20 10V38C20 41.32 22.68 44 26 44H27C27.56 44 28 43.56 28 43V36C28 34.9 28.9 34 30 34H34C35.1 34 36 34.9 36 36V43C36 43.56 36.44 44 37 44H38C41.32 44 44 41.32 44 38V10C44 6.68 41.32 4 38 4ZM29.5 26C29.5 26.82 28.82 27.5 28 27.5C27.18 27.5 26.5 26.82 26.5 26V16C26.5 15.18 27.18 14.5 28 14.5C28.82 14.5 29.5 15.18 29.5 16V26ZM37.5 26C37.5 26.82 36.82 27.5 36 27.5C35.18 27.5 34.5 26.82 34.5 26V16C34.5 15.18 35.18 14.5 36 14.5C36.82 14.5 37.5 15.18 37.5 16V26Z" fill="white"/>
</g>
</g>
</svg>
