<svg width="48" height="48" viewBox="0 0 48 48" fill="none" xmlns="http://www.w3.org/2000/svg">
<g id="vuesax/bold/buliding">
<g id="buliding">
<path id="Vector" d="M44 42.5H4C3.18 42.5 2.5 43.18 2.5 44C2.5 44.82 3.18 45.5 4 45.5H44C44.82 45.5 45.5 44.82 45.5 44C45.5 43.18 44.82 42.5 44 42.5Z" fill="white"/>
<path id="Vector_2" d="M34 4H14C8 4 6 7.58 6 12V44H42V12C42 7.58 40 4 34 4ZM20 34.5H14C13.18 34.5 12.5 33.82 12.5 33C12.5 32.18 13.18 31.5 14 31.5H20C20.82 31.5 21.5 32.18 21.5 33C21.5 33.82 20.82 34.5 20 34.5ZM20 25.5H14C13.18 25.5 12.5 24.82 12.5 24C12.5 23.18 13.18 22.5 14 22.5H20C20.82 22.5 21.5 23.18 21.5 24C21.5 24.82 20.82 25.5 20 25.5ZM20 16.5H14C13.18 16.5 12.5 15.82 12.5 15C12.5 14.18 13.18 13.5 14 13.5H20C20.82 13.5 21.5 14.18 21.5 15C21.5 15.82 20.82 16.5 20 16.5ZM34 34.5H28C27.18 34.5 26.5 33.82 26.5 33C26.5 32.18 27.18 31.5 28 31.5H34C34.82 31.5 35.5 32.18 35.5 33C35.5 33.82 34.82 34.5 34 34.5ZM34 25.5H28C27.18 25.5 26.5 24.82 26.5 24C26.5 23.18 27.18 22.5 28 22.5H34C34.82 22.5 35.5 23.18 35.5 24C35.5 24.82 34.82 25.5 34 25.5ZM34 16.5H28C27.18 16.5 26.5 15.82 26.5 15C26.5 14.18 27.18 13.5 28 13.5H34C34.82 13.5 35.5 14.18 35.5 15C35.5 15.82 34.82 16.5 34 16.5Z" fill="white"/>
</g>
</g>
</svg>
