<svg width="48" height="48" viewBox="0 0 48 48" fill="none" xmlns="http://www.w3.org/2000/svg">
<g id="vuesax/bold/house-2">
<g id="house-2">
<path id="Vector" d="M20 31C19.18 31 18.5 31.68 18.5 32.5V35.5C18.5 36.32 19.18 37 20 37C20.82 37 21.5 36.32 21.5 35.5V32.5C21.5 31.68 20.82 31 20 31Z" fill="white"/>
<path id="Vector_2" d="M44 42.5004H42V19.9604C42 18.7204 41.44 17.5604 40.46 16.8004L26.46 5.92043C25.02 4.78043 22.98 4.78043 21.54 5.92043L7.54 16.8004C6.56 17.5604 6 18.7204 6 19.9404L5.9 42.5004H4C3.18 42.5004 2.5 43.1604 2.5 44.0004C2.5 44.8204 3.18 45.5004 4 45.5004H44C44.82 45.5004 45.5 44.8204 45.5 44.0004C45.5 43.1604 44.82 42.5004 44 42.5004ZM21 13.5004H27C27.82 13.5004 28.5 14.1804 28.5 15.0004C28.5 15.8204 27.82 16.5004 27 16.5004H21C20.18 16.5004 19.5 15.8204 19.5 15.0004C19.5 14.1804 20.18 13.5004 21 13.5004ZM34 42.5004H14V25.0004C14 23.3404 15.34 22.0004 17 22.0004H31C32.66 22.0004 34 23.3404 34 25.0004V42.5004Z" fill="white"/>
</g>
</g>
</svg>
