<svg width="48" height="48" viewBox="0 0 48 48" fill="none" xmlns="http://www.w3.org/2000/svg">
<g id="vuesax/bold/building">
<g id="building">
<path id="Vector" d="M21.51 8.75255L12.6752 4.81061C7.90883 2.70465 4 4.84661 4 9.56253V36.2741C4 38.326 5.89459 40 8.20798 40H23.0057C24.1026 40 25 39.19 25 38.2V13.7385C25 11.8485 23.4245 9.59853 21.51 8.75255ZM17.9601 25.1503H11.0399C10.2222 25.1503 9.54416 24.5383 9.54416 23.8003C9.54416 23.0623 10.2222 22.4503 11.0399 22.4503H17.9601C18.7778 22.4503 19.4558 23.0623 19.4558 23.8003C19.4558 24.5383 18.7977 25.1503 17.9601 25.1503ZM17.9601 17.9504H11.0399C10.2222 17.9504 9.54416 17.3384 9.54416 16.6004C9.54416 15.8624 10.2222 15.2504 11.0399 15.2504H17.9601C18.7778 15.2504 19.4558 15.8624 19.4558 16.6004C19.4558 17.3384 18.7977 17.9504 17.9601 17.9504Z" fill="white"/>
<path id="Vector_2" d="M44 36V38.9495C44 41.7374 41.76 44 39 44H29.94C28.86 44 28 43.1313 28 42.0404V37.6768C30.14 37.9394 32.4 37.3131 34.02 36C35.38 37.1111 37.12 37.7778 39.02 37.7778C40.88 37.7778 42.62 37.1111 44 36Z" fill="white"/>
<path id="Vector_3" d="M44 30.1V30.12C43.84 32.74 41.7 34.84 39.02 34.84C36.24 34.84 34.02 32.58 34.02 29.84C34.02 32.9 31.2 35.36 28 34.74V24C28 22.72 29.18 21.76 30.44 22.04L34.02 22.84L34.98 23.06L39.06 23.98C40.04 24.18 40.94 24.52 41.72 25.02C41.72 25.04 41.74 25.04 41.74 25.04C41.94 25.18 42.14 25.34 42.32 25.52C43.24 26.44 43.84 27.78 43.98 29.74C43.98 29.86 44 29.98 44 30.1Z" fill="white"/>
</g>
</g>
</svg>
